PathFileType	4	(X/Y/Z)	c:/Users/goper/Files/vsCode/490R/osim_files/C15/C15_Slow_05.trc
DataRate	CameraRate	NumFrames	NumMarkers	Units                	OrigDataRate	OrigDataStartFrame	OrigNumFrames
250.00	250.00	7	36	mm	250.0	1562	2498
                Frame#	Time	LPSIS			LASIS			LTH1			LTH2			LTH3			LTH4			LLFE			LMFE			LSH1			LSH2			LSH3			LSH4			LLMAL			LMMAL			LCAL			LMTP5			LTOE			LMTP1			RPSIS			RASIS			RTH1			RTH2			RTH3			RTH4			RLFE			RMFE			RSH1			RSH2			RSH3			RSH4			RLMAL			RMMAL			RCAL			RMTP1			RTOE			RMTP5		
		X1	Y1	Z1	X2	Y2	Z2	X3	Y3	Z3	X4	Y4	Z4	X5	Y5	Z5	X6	Y6	Z6	X7	Y7	Z7	X8	Y8	Z8	X9	Y9	Z9	X10	Y10	Z10	X11	Y11	Z11	X12	Y12	Z12	X13	Y13	Z13	X14	Y14	Z14	X15	Y15	Z15	X16	Y16	Z16	X17	Y17	Z17	X18	Y18	Z18	X19	Y19	Z19	X20	Y20	Z20	X21	Y21	Z21	X22	Y22	Z22	X23	Y23	Z23	X24	Y24	Z24	X25	Y25	Z25	X26	Y26	Z26	X27	Y27	Z27	X28	Y28	Z28	X29	Y29	Z29	X30	Y30	Z30	X31	Y31	Z31	X32	Y32	Z32	X33	Y33	Z33	X34	Y34	Z34	X35	Y35	Z35	X36	Y36	Z36

1562	6.24400	-1113.29028	1025.85388	338.59412	-1283.45203	1006.68665	392.99664	-1232.20996	610.19287	446.01434	-1234.03955	566.76367	431.18625	-1281.70740	623.77893	440.75427	-1284.92578	578.65857	430.22650	-1251.46265	493.52499	407.95917	-1251.43005	481.86646	290.05884	-1184.58838	384.99408	418.36804	-1183.42822	340.78079	422.80652	-1246.84558	377.42844	416.50385	-1236.59998	333.90814	419.65723	-1180.23938	82.39386	348.30164	-1200.45654	111.13640	261.49170	-1119.87097	61.70928	302.96826	-1303.24011	40.56638	365.73898	-1357.99451	63.71586	302.85922	-1318.51331	32.90468	244.84119	-1107.20471	1020.67505	217.50388	-1258.97412	1000.00452	145.44269	-1290.95544	638.21930	68.93348	-1303.21423	594.74719	71.99239	-1349.49695	652.89514	76.05161	-1357.48169	605.73676	76.86909	-1339.28320	507.44205	94.07667	-1339.94958	485.89499	214.63307	-1220.95642	480.91089	93.30164	-1190.53442	450.07834	91.63432	-1255.17981	424.42432	85.39526	-1223.30005	411.22125	79.91095	-1021.31677	249.07410	146.29776	-1073.22803	231.03474	224.88594	-975.00696	275.26755	207.27350	-1083.45459	80.92458	207.09843	-1111.61621	93.55166	148.41991	-1038.10535	124.22136	101.63190
1563	6.24800	-1116.26440	1026.10083	338.65741	-1286.44141	1006.80011	393.40024	-1234.25415	610.64746	446.44281	-1235.09412	566.85248	431.33261	-1282.92676	623.60284	440.97598	-1286.09912	578.69537	430.35312	-1252.29529	493.48416	408.14005	-1252.34106	481.80734	290.22034	-1186.22351	385.20398	418.72070	-1183.80164	340.86646	422.88394	-1247.45056	377.42572	416.58273	-1237.02783	333.86502	419.77859	-1180.22754	82.41946	348.30319	-1200.54163	111.19529	261.49475	-1119.91553	61.86985	303.04404	-1303.22424	40.55722	365.77771	-1357.98865	63.64402	302.87689	-1318.52539	32.91942	244.82915	-1110.38037	1021.09027	217.57785	-1262.35266	1000.53442	145.82793	-1296.41638	639.34918	68.86793	-1309.00452	595.93634	71.99338	-1354.76550	654.41608	76.22546	-1363.18982	607.33118	77.07110	-1345.51685	508.83969	94.45375	-1345.97339	487.44199	215.07501	-1227.30115	481.05396	93.96600	-1197.31262	449.88104	92.15558	-1262.54944	424.90903	85.62703	-1230.22095	411.56601	80.21589	-1030.21204	246.78049	146.39909	-1081.92725	229.75078	225.26006	-983.17212	272.13098	207.32034	-1095.09497	79.81944	207.08409	-1123.21216	93.12009	148.52652	-1049.32031	122.44473	101.56263
1564	6.25200	-1119.12952	1026.30103	338.73361	-1289.40051	1006.88263	393.83517	-1235.33289	610.69104	446.56067	-1236.17749	566.95343	431.57333	-1284.27576	623.47095	441.23218	-1287.19751	578.40131	430.72638	-1253.17078	493.43420	408.31369	-1253.69226	481.76791	290.47491	-1186.74536	385.30865	418.77551	-1184.17041	340.95950	422.91446	-1247.96008	377.39307	416.78162	-1237.44653	333.87054	419.91986	-1180.43152	82.10464	347.98309	-1200.60388	111.24342	261.53046	-1120.01147	61.24367	301.28104	-1303.24561	40.54819	365.79105	-1357.99976	63.57742	302.89297	-1318.71875	33.06208	244.65918	-1113.53442	1021.48523	217.63998	-1265.59460	1001.03400	146.15698	-1301.86475	640.51764	68.74005	-1314.66980	597.22876	72.05565	-1360.13171	655.94653	76.42580	-1368.84167	608.90198	77.36665	-1351.58826	510.27234	94.79888	-1351.86462	488.93546	215.45767	-1233.67773	481.17050	94.56252	-1203.99207	449.71866	92.65859	-1270.03748	425.54492	85.77422	-1237.25879	411.86093	80.50060	-1039.29016	244.31557	146.46681	-1090.85425	228.26688	225.40584	-991.42816	268.73004	207.31068	-1106.96228	78.65785	207.09169	-1135.09753	92.41300	148.61176	-1060.82812	120.31351	101.42757
1565	6.25600	-1122.24109	1026.47412	338.83749	-1292.33240	1006.91156	394.22342	-1236.70679	610.75433	446.70120	-1237.33777	567.04694	431.59079	-1285.52026	623.30225	441.45428	-1288.34705	578.41504	430.82092	-1253.95654	493.40515	408.51199	-1254.66052	481.66714	290.64938	-1186.24487	385.23438	418.48819	-1184.51917	341.06979	422.92926	-1248.40515	377.33035	416.92120	-1237.78662	333.86002	420.05856	-1180.23743	82.49632	348.25143	-1200.82642	111.36346	261.47287	-1120.01843	61.32777	301.24188	-1303.22241	40.53131	365.82233	-1358.01416	63.52382	302.92804	-1318.53381	32.62199	244.60414	-1116.87036	1021.78046	217.71223	-1269.02356	1001.51508	146.50177	-1307.20630	641.61475	68.62852	-1320.41895	598.44604	72.01503	-1365.49768	657.50122	76.63135	-1374.45825	610.43744	77.73539	-1357.38245	511.86887	95.00481	-1357.73499	490.41724	215.87825	-1240.25342	481.16718	95.47846	-1210.66296	449.44189	93.20493	-1277.55933	426.34338	85.86822	-1244.32983	412.12888	80.87427	-1048.54614	241.80396	146.85574	-1099.89392	226.56995	225.71364	-999.81927	265.17960	207.30850	-1119.71838	77.99100	208.34663	-1147.07422	91.87139	148.65633	-1072.23621	118.31928	101.40876
1566	6.26000	-1125.37915	1026.66785	338.91907	-1295.17957	1006.91425	394.63293	-1237.93005	610.76251	446.83588	-1238.27698	566.77441	431.78656	-1286.90686	623.19421	441.66681	-1289.58533	578.20227	431.22580	-1254.67725	493.00574	408.09033	-1255.91333	481.58484	290.83829	-1187.60669	385.66785	419.01682	-1184.87183	341.19290	422.94138	-1248.91040	377.28284	417.09283	-1238.08533	333.83569	420.19855	-1180.26196	82.51838	348.22217	-1200.55249	111.40334	261.66519	-1120.03040	61.38008	301.18622	-1303.20959	40.52131	365.85721	-1358.03906	63.46830	302.94650	-1318.51855	32.63987	244.57288	-1120.04285	1022.15631	217.73683	-1272.28760	1001.98615	146.81573	-1312.38159	643.04382	68.45698	-1325.86499	599.70667	72.05616	-1370.91858	658.98737	77.16742	-1380.03503	612.04651	78.00465	-1363.79980	512.97247	95.70096	-1363.66406	491.86783	216.29839	-1246.41772	481.29245	96.17172	-1217.28552	449.18054	93.68919	-1285.03015	427.31564	85.94041	-1251.68848	411.87805	81.04973	-1057.62036	239.12163	146.92052	-1109.34033	224.73453	225.90244	-1008.38660	261.42242	207.34808	-1132.15881	76.89211	208.37932	-1159.20361	91.26449	148.81796	-1084.02844	116.18863	101.35249
1567	6.26400	-1128.37085	1026.82971	339.00604	-1298.08936	1006.93378	394.95389	-1239.31140	610.76245	446.88834	-1239.57141	567.04358	431.80453	-1288.12891	623.08215	441.88486	-1290.88831	578.10498	431.04919	-1255.59753	492.88470	408.23840	-1257.08813	481.52597	290.99197	-1188.12231	385.73428	418.91821	-1185.23157	341.29510	422.86630	-1249.35498	377.21179	417.24677	-1238.40491	333.81186	420.30173	-1180.28320	82.56222	348.17560	-1200.69836	111.47759	261.61993	-1120.00293	61.96394	302.68472	-1303.21533	40.51007	365.88721	-1358.07678	63.41140	302.96280	-1318.53833	32.61573	244.57323	-1123.27527	1022.37531	217.79688	-1275.79297	1002.45105	147.12930	-1317.88550	644.02576	68.51961	-1335.14417	600.12152	74.76294	-1376.13831	660.45233	77.36325	-1385.56531	613.52814	78.39416	-1369.83618	514.32623	96.14005	-1369.32690	493.27179	216.71036	-1252.71155	481.29272	96.61890	-1223.95056	448.79218	94.23528	-1292.36499	428.47314	86.02219	-1258.65796	412.04080	81.35439	-1067.02380	236.21300	147.06079	-1118.69983	222.79590	226.10626	-1016.99951	257.56885	207.33392	-1145.14062	76.01240	208.23376	-1171.34326	90.73945	148.90877	-1095.77271	114.12124	101.42426
1568	6.26800	-1131.20471	1027.02014	339.02939	-1301.03247	1006.91199	395.31943	-1240.57910	610.80231	446.97858	-1240.68835	567.11450	431.92444	-1289.58691	622.90826	441.96249	-1291.86853	577.82117	431.60355	-1256.38037	492.86899	408.40674	-1258.20349	481.43372	291.17813	-1188.64038	385.65231	418.61179	-1185.54333	341.41431	422.77954	-1249.72888	377.13623	417.29114	-1238.67859	333.77911	420.38315	-1180.29077	82.58638	348.12726	-1200.88452	111.56471	261.57050	-1119.97852	62.03268	302.59277	-1303.21301	40.48535	365.90442	-1358.09302	63.35146	302.98407	-1318.55164	32.60492	244.59265	-1126.43237	1022.71893	217.78163	-1279.09851	1002.84082	147.39201	-1323.06738	645.12665	68.56446	-1341.03491	601.19934	75.43336	-1381.20154	661.79926	77.62067	-1390.99805	614.96674	78.74065	-1375.81848	515.53992	96.61816	-1374.75977	494.59711	216.99066	-1258.49182	481.30862	97.26844	-1230.56458	448.46939	94.73982	-1299.47913	429.82715	86.14493	-1265.65186	412.16589	81.70913	-1076.36353	233.30832	147.14055	-1128.16919	220.69479	226.27760	-1025.79919	253.44159	207.32451	-1157.57288	74.70995	208.25258	-1183.96985	90.06989	148.84604	-1107.75061	111.92069	101.34703
